<?xml version="1.0" encoding="UTF-8"?>
<mxfile host="app.diagrams.net" modified="2025-01-18T12:00:00.000Z" agent="5.0" etag="xyz123" version="24.7.17" type="device">
  <diagram name="hackz-ichthyo AWS Architecture" id="aws-architecture">
    <mxGraphModel dx="2074" dy="1114" grid="1" gridSize="10" guides="1" tooltips="1" connect="1" arrows="1" fold="1" page="1" pageScale="1" pageWidth="1654" pageHeight="2336" math="0" shadow="0">
      <root>
        <mxCell id="0"/>
        <mxCell id="1" parent="0"/>
        
        <!-- Title -->
        <mxCell id="title" value="hackz-ichthyo Reversi Game Architecture" style="text;html=1;strokeColor=none;fillColor=none;align=center;verticalAlign=middle;whiteSpace=wrap;rounded=0;fontSize=24;fontStyle=1;" vertex="1" parent="1">
          <mxGeometry x="500" y="20" width="400" height="40" as="geometry"/>
        </mxCell>

        <!-- Internet/User -->
        <mxCell id="internet" value="" style="sketch=0;outlineConnect=0;fontColor=#232F3E;gradientColor=none;fillColor=#232F3D;strokeColor=none;dashed=0;verticalLabelPosition=bottom;verticalAlign=top;align=center;html=1;fontSize=12;fontStyle=0;aspect=fixed;pointerEvents=1;shape=mxgraph.aws4.users;" vertex="1" parent="1">
          <mxGeometry x="100" y="100" width="78" height="78" as="geometry"/>
        </mxCell>
        
        <mxCell id="internet_label" value="Users" style="text;html=1;align=center;verticalAlign=middle;whiteSpace=wrap;rounded=0;" vertex="1" parent="1">
          <mxGeometry x="104" y="185" width="70" height="20" as="geometry"/>
        </mxCell>

        <!-- CloudFront Distribution -->
        <mxCell id="cloudfront" value="" style="sketch=0;points=[[0,0,0],[0.25,0,0],[0.5,0,0],[0.75,0,0],[1,0,0],[0,1,0],[0.25,1,0],[0.5,1,0],[0.75,1,0],[1,1,0],[0,0.25,0],[0,0.5,0],[0,0.75,0],[1,0.25,0],[1,0.5,0],[1,0.75,0]];outlineConnect=0;fontColor=#232F3E;gradientColor=#F78E04;gradientDirection=north;fillColor=#D05C17;strokeColor=#ffffff;dashed=0;verticalLabelPosition=bottom;verticalAlign=top;align=center;html=1;fontSize=12;fontStyle=0;aspect=fixed;shape=mxgraph.aws4.resourceIcon;resIcon=mxgraph.aws4.cloudfront;" vertex="1" parent="1">
          <mxGeometry x="300" y="100" width="78" height="78" as="geometry"/>
        </mxCell>
        
        <mxCell id="cloudfront_label" value="CloudFront&#xa;d3g7mz0xj2ilb4" style="text;html=1;align=center;verticalAlign=middle;whiteSpace=wrap;rounded=0;" vertex="1" parent="1">
          <mxGeometry x="299" y="185" width="80" height="30" as="geometry"/>
        </mxCell>

        <!-- S3 Bucket -->
        <mxCell id="s3" value="" style="sketch=0;points=[[0,0,0],[0.25,0,0],[0.5,0,0],[0.75,0,0],[1,0,0],[0,1,0],[0.25,1,0],[0.5,1,0],[0.75,1,0],[1,1,0],[0,0.25,0],[0,0.5,0],[0,0.75,0],[1,0.25,0],[1,0.5,0],[1,0.75,0]];outlineConnect=0;fontColor=#232F3E;gradientColor=#60A337;gradientDirection=north;fillColor=#277116;strokeColor=#ffffff;dashed=0;verticalLabelPosition=bottom;verticalAlign=top;align=center;html=1;fontSize=12;fontStyle=0;aspect=fixed;shape=mxgraph.aws4.resourceIcon;resIcon=mxgraph.aws4.s3;" vertex="1" parent="1">
          <mxGeometry x="500" y="100" width="78" height="78" as="geometry"/>
        </mxCell>
        
        <mxCell id="s3_label" value="S3 Bucket&#xa;hackz-ichthyo-bucket" style="text;html=1;align=center;verticalAlign=middle;whiteSpace=wrap;rounded=0;" vertex="1" parent="1">
          <mxGeometry x="499" y="185" width="80" height="30" as="geometry"/>
        </mxCell>

        <!-- Custom Domain -->
        <mxCell id="custom_domain" value="" style="sketch=0;points=[[0,0,0],[0.25,0,0],[0.5,0,0],[0.75,0,0],[1,0,0],[0,1,0],[0.25,1,0],[0.5,1,0],[0.75,1,0],[1,1,0],[0,0.25,0],[0,0.5,0],[0,0.75,0],[1,0.25,0],[1,0.5,0],[1,0.75,0]];outlineConnect=0;fontColor=#232F3E;gradientColor=#945DF2;gradientDirection=north;fillColor=#5A30B5;strokeColor=#ffffff;dashed=0;verticalLabelPosition=bottom;verticalAlign=top;align=center;html=1;fontSize=12;fontStyle=0;aspect=fixed;shape=mxgraph.aws4.resourceIcon;resIcon=mxgraph.aws4.route_53;" vertex="1" parent="1">
          <mxGeometry x="100" y="300" width="78" height="78" as="geometry"/>
        </mxCell>
        
        <mxCell id="custom_domain_label" value="Custom Domain&#xa;2509-hackz-ichthyo.ulxsth.com" style="text;html=1;align=center;verticalAlign=middle;whiteSpace=wrap;rounded=0;" vertex="1" parent="1">
          <mxGeometry x="64" y="385" width="150" height="30" as="geometry"/>
        </mxCell>

        <!-- ACM Certificate -->
        <mxCell id="acm" value="" style="sketch=0;points=[[0,0,0],[0.25,0,0],[0.5,0,0],[0.75,0,0],[1,0,0],[0,1,0],[0.25,1,0],[0.5,1,0],[0.75,1,0],[1,1,0],[0,0.25,0],[0,0.5,0],[0,0.75,0],[1,0.25,0],[1,0.5,0],[1,0.75,0]];outlineConnect=0;fontColor=#232F3E;gradientColor=#F54749;gradientDirection=north;fillColor=#C7131F;strokeColor=#ffffff;dashed=0;verticalLabelPosition=bottom;verticalAlign=top;align=center;html=1;fontSize=12;fontStyle=0;aspect=fixed;shape=mxgraph.aws4.resourceIcon;resIcon=mxgraph.aws4.certificate_manager_3;" vertex="1" parent="1">
          <mxGeometry x="300" y="300" width="78" height="78" as="geometry"/>
        </mxCell>
        
        <mxCell id="acm_label" value="ACM Certificate" style="text;html=1;align=center;verticalAlign=middle;whiteSpace=wrap;rounded=0;" vertex="1" parent="1">
          <mxGeometry x="289" y="385" width="100" height="20" as="geometry"/>
        </mxCell>

        <!-- API Gateway WebSocket -->
        <mxCell id="apigateway_ws" value="" style="sketch=0;points=[[0,0,0],[0.25,0,0],[0.5,0,0],[0.75,0,0],[1,0,0],[0,1,0],[0.25,1,0],[0.5,1,0],[0.75,1,0],[1,1,0],[0,0.25,0],[0,0.5,0],[0,0.75,0],[1,0.25,0],[1,0.5,0],[1,0.75,0]];outlineConnect=0;fontColor=#232F3E;gradientColor=#FF4F8B;gradientDirection=north;fillColor=#BC1356;strokeColor=#ffffff;dashed=0;verticalLabelPosition=bottom;verticalAlign=top;align=center;html=1;fontSize=12;fontStyle=0;aspect=fixed;shape=mxgraph.aws4.resourceIcon;resIcon=mxgraph.aws4.api_gateway;" vertex="1" parent="1">
          <mxGeometry x="500" y="300" width="78" height="78" as="geometry"/>
        </mxCell>
        
        <mxCell id="apigateway_ws_label" value="API Gateway WebSocket&#xa;amsdtyktxi" style="text;html=1;align=center;verticalAlign=middle;whiteSpace=wrap;rounded=0;" vertex="1" parent="1">
          <mxGeometry x="479" y="385" width="120" height="30" as="geometry"/>
        </mxCell>

        <!-- API Gateway REST -->
        <mxCell id="apigateway_rest" value="" style="sketch=0;points=[[0,0,0],[0.25,0,0],[0.5,0,0],[0.75,0,0],[1,0,0],[0,1,0],[0.25,1,0],[0.5,1,0],[0.75,1,0],[1,1,0],[0,0.25,0],[0,0.5,0],[0,0.75,0],[1,0.25,0],[1,0.5,0],[1,0.75,0]];outlineConnect=0;fontColor=#232F3E;gradientColor=#FF4F8B;gradientDirection=north;fillColor=#BC1356;strokeColor=#ffffff;dashed=0;verticalLabelPosition=bottom;verticalAlign=top;align=center;html=1;fontSize=12;fontStyle=0;aspect=fixed;shape=mxgraph.aws4.resourceIcon;resIcon=mxgraph.aws4.api_gateway;" vertex="1" parent="1">
          <mxGeometry x="700" y="300" width="78" height="78" as="geometry"/>
        </mxCell>
        
        <mxCell id="apigateway_rest_label" value="API Gateway REST&#xa;game-replay-api" style="text;html=1;align=center;verticalAlign=middle;whiteSpace=wrap;rounded=0;" vertex="1" parent="1">
          <mxGeometry x="679" y="385" width="120" height="30" as="geometry"/>
        </mxCell>

        <!-- Lambda Functions Container -->
        <mxCell id="lambda_container" value="Lambda Functions" style="rounded=1;whiteSpace=wrap;html=1;fillColor=#FFF2CC;strokeColor=#d6b656;fontSize=16;fontStyle=1;verticalAlign=top;" vertex="1" parent="1">
          <mxGeometry x="50" y="500" width="800" height="180" as="geometry"/>
        </mxCell>

        <!-- Lambda Connect -->
        <mxCell id="lambda_connect" value="" style="sketch=0;points=[[0,0,0],[0.25,0,0],[0.5,0,0],[0.75,0,0],[1,0,0],[0,1,0],[0.25,1,0],[0.5,1,0],[0.75,1,0],[1,1,0],[0,0.25,0],[0,0.5,0],[0,0.75,0],[1,0.25,0],[1,0.5,0],[1,0.75,0]];outlineConnect=0;fontColor=#232F3E;gradientColor=#F78E04;gradientDirection=north;fillColor=#D05C17;strokeColor=#ffffff;dashed=0;verticalLabelPosition=bottom;verticalAlign=top;align=center;html=1;fontSize=12;fontStyle=0;aspect=fixed;shape=mxgraph.aws4.resourceIcon;resIcon=mxgraph.aws4.lambda;" vertex="1" parent="1">
          <mxGeometry x="100" y="540" width="50" height="50" as="geometry"/>
        </mxCell>
        
        <mxCell id="lambda_connect_label" value="Connect&#xa;Handler" style="text;html=1;align=center;verticalAlign=middle;whiteSpace=wrap;rounded=0;fontSize=10;" vertex="1" parent="1">
          <mxGeometry x="85" y="595" width="80" height="25" as="geometry"/>
        </mxCell>

        <!-- Lambda Disconnect -->
        <mxCell id="lambda_disconnect" value="" style="sketch=0;points=[[0,0,0],[0.25,0,0],[0.5,0,0],[0.75,0,0],[1,0,0],[0,1,0],[0.25,1,0],[0.5,1,0],[0.75,1,0],[1,1,0],[0,0.25,0],[0,0.5,0],[0,0.75,0],[1,0.25,0],[1,0.5,0],[1,0.75,0]];outlineConnect=0;fontColor=#232F3E;gradientColor=#F78E04;gradientDirection=north;fillColor=#D05C17;strokeColor=#ffffff;dashed=0;verticalLabelPosition=bottom;verticalAlign=top;align=center;html=1;fontSize=12;fontStyle=0;aspect=fixed;shape=mxgraph.aws4.resourceIcon;resIcon=mxgraph.aws4.lambda;" vertex="1" parent="1">
          <mxGeometry x="200" y="540" width="50" height="50" as="geometry"/>
        </mxCell>
        
        <mxCell id="lambda_disconnect_label" value="Disconnect&#xa;Handler" style="text;html=1;align=center;verticalAlign=middle;whiteSpace=wrap;rounded=0;fontSize=10;" vertex="1" parent="1">
          <mxGeometry x="185" y="595" width="80" height="25" as="geometry"/>
        </mxCell>

        <!-- Lambda Matchmaking -->
        <mxCell id="lambda_matchmaking" value="" style="sketch=0;points=[[0,0,0],[0.25,0,0],[0.5,0,0],[0.75,0,0],[1,0,0],[0,1,0],[0.25,1,0],[0.5,1,0],[0.75,1,0],[1,1,0],[0,0.25,0],[0,0.5,0],[0,0.75,0],[1,0.25,0],[1,0.5,0],[1,0.75,0]];outlineConnect=0;fontColor=#232F3E;gradientColor=#F78E04;gradientDirection=north;fillColor=#D05C17;strokeColor=#ffffff;dashed=0;verticalLabelPosition=bottom;verticalAlign=top;align=center;html=1;fontSize=12;fontStyle=0;aspect=fixed;shape=mxgraph.aws4.resourceIcon;resIcon=mxgraph.aws4.lambda;" vertex="1" parent="1">
          <mxGeometry x="300" y="540" width="50" height="50" as="geometry"/>
        </mxCell>
        
        <mxCell id="lambda_matchmaking_label" value="Matchmaking&#xa;Handler" style="text;html=1;align=center;verticalAlign=middle;whiteSpace=wrap;rounded=0;fontSize=10;" vertex="1" parent="1">
          <mxGeometry x="285" y="595" width="80" height="25" as="geometry"/>
        </mxCell>

        <!-- Lambda Game -->
        <mxCell id="lambda_game" value="" style="sketch=0;points=[[0,0,0],[0.25,0,0],[0.5,0,0],[0.75,0,0],[1,0,0],[0,1,0],[0.25,1,0],[0.5,1,0],[0.75,1,0],[1,1,0],[0,0.25,0],[0,0.5,0],[0,0.75,0],[1,0.25,0],[1,0.5,0],[1,0.75,0]];outlineConnect=0;fontColor=#232F3E;gradientColor=#F78E04;gradientDirection=north;fillColor=#D05C17;strokeColor=#ffffff;dashed=0;verticalLabelPosition=bottom;verticalAlign=top;align=center;html=1;fontSize=12;fontStyle=0;aspect=fixed;shape=mxgraph.aws4.resourceIcon;resIcon=mxgraph.aws4.lambda;" vertex="1" parent="1">
          <mxGeometry x="400" y="540" width="50" height="50" as="geometry"/>
        </mxCell>
        
        <mxCell id="lambda_game_label" value="Game&#xa;Handler" style="text;html=1;align=center;verticalAlign=middle;whiteSpace=wrap;rounded=0;fontSize=10;" vertex="1" parent="1">
          <mxGeometry x="385" y="595" width="80" height="25" as="geometry"/>
        </mxCell>

        <!-- Lambda Replay -->
        <mxCell id="lambda_replay" value="" style="sketch=0;points=[[0,0,0],[0.25,0,0],[0.5,0,0],[0.75,0,0],[1,0,0],[0,1,0],[0.25,1,0],[0.5,1,0],[0.75,1,0],[1,1,0],[0,0.25,0],[0,0.5,0],[0,0.75,0],[1,0.25,0],[1,0.5,0],[1,0.75,0]];outlineConnect=0;fontColor=#232F3E;gradientColor=#F78E04;gradientDirection=north;fillColor=#D05C17;strokeColor=#ffffff;dashed=0;verticalLabelPosition=bottom;verticalAlign=top;align=center;html=1;fontSize=12;fontStyle=0;aspect=fixed;shape=mxgraph.aws4.resourceIcon;resIcon=mxgraph.aws4.lambda;" vertex="1" parent="1">
          <mxGeometry x="500" y="540" width="50" height="50" as="geometry"/>
        </mxCell>
        
        <mxCell id="lambda_replay_label" value="Game Replay&#xa;Handler" style="text;html=1;align=center;verticalAlign=middle;whiteSpace=wrap;rounded=0;fontSize=10;" vertex="1" parent="1">
          <mxGeometry x="485" y="595" width="80" height="25" as="geometry"/>
        </mxCell>

        <!-- Lambda Cleanup -->
        <mxCell id="lambda_cleanup" value="" style="sketch=0;points=[[0,0,0],[0.25,0,0],[0.5,0,0],[0.75,0,0],[1,0,0],[0,1,0],[0.25,1,0],[0.5,1,0],[0.75,1,0],[1,1,0],[0,0.25,0],[0,0.5,0],[0,0.75,0],[1,0.25,0],[1,0.5,0],[1,0.75,0]];outlineConnect=0;fontColor=#232F3E;gradientColor=#F78E04;gradientDirection=north;fillColor=#D05C17;strokeColor=#ffffff;dashed=0;verticalLabelPosition=bottom;verticalAlign=top;align=center;html=1;fontSize=12;fontStyle=0;aspect=fixed;shape=mxgraph.aws4.resourceIcon;resIcon=mxgraph.aws4.lambda;" vertex="1" parent="1">
          <mxGeometry x="600" y="540" width="50" height="50" as="geometry"/>
        </mxCell>
        
        <mxCell id="lambda_cleanup_label" value="Cleanup&#xa;Handler" style="text;html=1;align=center;verticalAlign=middle;whiteSpace=wrap;rounded=0;fontSize=10;" vertex="1" parent="1">
          <mxGeometry x="585" y="595" width="80" height="25" as="geometry"/>
        </mxCell>

        <!-- EventBridge -->
        <mxCell id="eventbridge" value="" style="sketch=0;points=[[0,0,0],[0.25,0,0],[0.5,0,0],[0.75,0,0],[1,0,0],[0,1,0],[0.25,1,0],[0.5,1,0],[0.75,1,0],[1,1,0],[0,0.25,0],[0,0.5,0],[0,0.75,0],[1,0.25,0],[1,0.5,0],[1,0.75,0]];outlineConnect=0;fontColor=#232F3E;gradientColor=#FF4F8B;gradientDirection=north;fillColor=#BC1356;strokeColor=#ffffff;dashed=0;verticalLabelPosition=bottom;verticalAlign=top;align=center;html=1;fontSize=12;fontStyle=0;aspect=fixed;shape=mxgraph.aws4.resourceIcon;resIcon=mxgraph.aws4.eventbridge;" vertex="1" parent="1">
          <mxGeometry x="700" y="540" width="50" height="50" as="geometry"/>
        </mxCell>
        
        <mxCell id="eventbridge_label" value="EventBridge&#xa;(5min schedule)" style="text;html=1;align=center;verticalAlign=middle;whiteSpace=wrap;rounded=0;fontSize=10;" vertex="1" parent="1">
          <mxGeometry x="680" y="595" width="90" height="25" as="geometry"/>
        </mxCell>

        <!-- DynamoDB Container -->
        <mxCell id="dynamodb_container" value="DynamoDB Tables" style="rounded=1;whiteSpace=wrap;html=1;fillColor=#E1D5E7;strokeColor=#9673a6;fontSize=16;fontStyle=1;verticalAlign=top;" vertex="1" parent="1">
          <mxGeometry x="50" y="750" width="550" height="120" as="geometry"/>
        </mxCell>

        <!-- DynamoDB WebSocket Connections -->
        <mxCell id="dynamodb_websocket" value="" style="sketch=0;points=[[0,0,0],[0.25,0,0],[0.5,0,0],[0.75,0,0],[1,0,0],[0,1,0],[0.25,1,0],[0.5,1,0],[0.75,1,0],[1,1,0],[0,0.25,0],[0,0.5,0],[0,0.75,0],[1,0.25,0],[1,0.5,0],[1,0.75,0]];outlineConnect=0;fontColor=#232F3E;gradientColor=#4D72F3;gradientDirection=north;fillColor=#3334B9;strokeColor=#ffffff;dashed=0;verticalLabelPosition=bottom;verticalAlign=top;align=center;html=1;fontSize=12;fontStyle=0;aspect=fixed;shape=mxgraph.aws4.resourceIcon;resIcon=mxgraph.aws4.dynamodb;" vertex="1" parent="1">
          <mxGeometry x="100" y="790" width="50" height="50" as="geometry"/>
        </mxCell>
        
        <mxCell id="dynamodb_websocket_label" value="WebSocket&#xa;Connections" style="text;html=1;align=center;verticalAlign=middle;whiteSpace=wrap;rounded=0;fontSize=10;" vertex="1" parent="1">
          <mxGeometry x="85" y="845" width="80" height="20" as="geometry"/>
        </mxCell>

        <!-- DynamoDB Game Service -->
        <mxCell id="dynamodb_game" value="" style="sketch=0;points=[[0,0,0],[0.25,0,0],[0.5,0,0],[0.75,0,0],[1,0,0],[0,1,0],[0.25,1,0],[0.5,1,0],[0.75,1,0],[1,1,0],[0,0.25,0],[0,0.5,0],[0,0.75,0],[1,0.25,0],[1,0.5,0],[1,0.75,0]];outlineConnect=0;fontColor=#232F3E;gradientColor=#4D72F3;gradientDirection=north;fillColor=#3334B9;strokeColor=#ffffff;dashed=0;verticalLabelPosition=bottom;verticalAlign=top;align=center;html=1;fontSize=12;fontStyle=0;aspect=fixed;shape=mxgraph.aws4.resourceIcon;resIcon=mxgraph.aws4.dynamodb;" vertex="1" parent="1">
          <mxGeometry x="250" y="790" width="50" height="50" as="geometry"/>
        </mxCell>
        
        <mxCell id="dynamodb_game_label" value="Game&#xa;Service" style="text;html=1;align=center;verticalAlign=middle;whiteSpace=wrap;rounded=0;fontSize=10;" vertex="1" parent="1">
          <mxGeometry x="235" y="845" width="80" height="20" as="geometry"/>
        </mxCell>

        <!-- DynamoDB Game Archive -->
        <mxCell id="dynamodb_archive" value="" style="sketch=0;points=[[0,0,0],[0.25,0,0],[0.5,0,0],[0.75,0,0],[1,0,0],[0,1,0],[0.25,1,0],[0.5,1,0],[0.75,1,0],[1,1,0],[0,0.25,0],[0,0.5,0],[0,0.75,0],[1,0.25,0],[1,0.5,0],[1,0.75,0]];outlineConnect=0;fontColor=#232F3E;gradientColor=#4D72F3;gradientDirection=north;fillColor=#3334B9;strokeColor=#ffffff;dashed=0;verticalLabelPosition=bottom;verticalAlign=top;align=center;html=1;fontSize=12;fontStyle=0;aspect=fixed;shape=mxgraph.aws4.resourceIcon;resIcon=mxgraph.aws4.dynamodb;" vertex="1" parent="1">
          <mxGeometry x="400" y="790" width="50" height="50" as="geometry"/>
        </mxCell>
        
        <mxCell id="dynamodb_archive_label" value="Game&#xa;Archive" style="text;html=1;align=center;verticalAlign=middle;whiteSpace=wrap;rounded=0;fontSize=10;" vertex="1" parent="1">
          <mxGeometry x="385" y="845" width="80" height="20" as="geometry"/>
        </mxCell>

        <!-- ECS/ECR Container -->
        <mxCell id="ecs_container" value="Container Services" style="rounded=1;whiteSpace=wrap;html=1;fillColor=#DDBDFF;strokeColor=#8C92AC;fontSize=16;fontStyle=1;verticalAlign=top;" vertex="1" parent="1">
          <mxGeometry x="900" y="100" width="400" height="450" as="geometry"/>
        </mxCell>

        <!-- ECR Repository -->
        <mxCell id="ecr" value="" style="sketch=0;points=[[0,0,0],[0.25,0,0],[0.5,0,0],[0.75,0,0],[1,0,0],[0,1,0],[0.25,1,0],[0.5,1,0],[0.75,1,0],[1,1,0],[0,0.25,0],[0,0.5,0],[0,0.75,0],[1,0.25,0],[1,0.5,0],[1,0.75,0]];outlineConnect=0;fontColor=#232F3E;gradientColor=#F78E04;gradientDirection=north;fillColor=#D05C17;strokeColor=#ffffff;dashed=0;verticalLabelPosition=bottom;verticalAlign=top;align=center;html=1;fontSize=12;fontStyle=0;aspect=fixed;shape=mxgraph.aws4.resourceIcon;resIcon=mxgraph.aws4.elastic_container_registry;" vertex="1" parent="1">
          <mxGeometry x="950" y="140" width="60" height="60" as="geometry"/>
        </mxCell>
        
        <mxCell id="ecr_label" value="ECR Repository&#xa;2509-hackz-ichthyo" style="text;html=1;align=center;verticalAlign=middle;whiteSpace=wrap;rounded=0;" vertex="1" parent="1">
          <mxGeometry x="930" y="205" width="100" height="30" as="geometry"/>
        </mxCell>

        <!-- VPC -->
        <mxCell id="vpc" value="VPC (10.0.0.0/16)" style="rounded=1;whiteSpace=wrap;html=1;fillColor=#D4E1F5;strokeColor=#6C8EBF;fontSize=14;fontStyle=1;verticalAlign=top;" vertex="1" parent="1">
          <mxGeometry x="950" y="250" width="320" height="280" as="geometry"/>
        </mxCell>

        <!-- Internet Gateway -->
        <mxCell id="igw" value="" style="sketch=0;points=[[0,0,0],[0.25,0,0],[0.5,0,0],[0.75,0,0],[1,0,0],[0,1,0],[0.25,1,0],[0.5,1,0],[0.75,1,0],[1,1,0],[0,0.25,0],[0,0.5,0],[0,0.75,0],[1,0.25,0],[1,0.5,0],[1,0.75,0]];outlineConnect=0;fontColor=#232F3E;gradientColor=#4D27AA;gradientDirection=north;fillColor=#232F3D;strokeColor=#ffffff;dashed=0;verticalLabelPosition=bottom;verticalAlign=top;align=center;html=1;fontSize=12;fontStyle=0;aspect=fixed;shape=mxgraph.aws4.resourceIcon;resIcon=mxgraph.aws4.internet_gateway;" vertex="1" parent="1">
          <mxGeometry x="970" y="275" width="40" height="40" as="geometry"/>
        </mxCell>
        
        <mxCell id="igw_label" value="IGW" style="text;html=1;align=center;verticalAlign=middle;whiteSpace=wrap;rounded=0;fontSize=10;" vertex="1" parent="1">
          <mxGeometry x="960" y="320" width="60" height="15" as="geometry"/>
        </mxCell>

        <!-- Subnet -->
        <mxCell id="subnet" value="Public Subnet&#xa;10.0.1.0/24 (ap-northeast-1a)" style="rounded=1;whiteSpace=wrap;html=1;fillColor=#E1F5FE;strokeColor=#006064;fontSize=12;fontStyle=1;verticalAlign=top;" vertex="1" parent="1">
          <mxGeometry x="970" y="350" width="280" height="160" as="geometry"/>
        </mxCell>

        <!-- ECS Cluster -->
        <mxCell id="ecs_cluster" value="" style="sketch=0;points=[[0,0,0],[0.25,0,0],[0.5,0,0],[0.75,0,0],[1,0,0],[0,1,0],[0.25,1,0],[0.5,1,0],[0.75,1,0],[1,1,0],[0,0.25,0],[0,0.5,0],[0,0.75,0],[1,0.25,0],[1,0.5,0],[1,0.75,0]];outlineConnect=0;fontColor=#232F3E;gradientColor=#F78E04;gradientDirection=north;fillColor=#D05C17;strokeColor=#ffffff;dashed=0;verticalLabelPosition=bottom;verticalAlign=top;align=center;html=1;fontSize=12;fontStyle=0;aspect=fixed;shape=mxgraph.aws4.resourceIcon;resIcon=mxgraph.aws4.ecs;" vertex="1" parent="1">
          <mxGeometry x="1000" y="380" width="50" height="50" as="geometry"/>
        </mxCell>
        
        <mxCell id="ecs_cluster_label" value="ECS Cluster" style="text;html=1;align=center;verticalAlign=middle;whiteSpace=wrap;rounded=0;fontSize=10;" vertex="1" parent="1">
          <mxGeometry x="985" y="435" width="80" height="15" as="geometry"/>
        </mxCell>

        <!-- ECS Service/Task -->
        <mxCell id="ecs_service" value="" style="sketch=0;points=[[0,0,0],[0.25,0,0],[0.5,0,0],[0.75,0,0],[1,0,0],[0,1,0],[0.25,1,0],[0.5,1,0],[0.75,1,0],[1,1,0],[0,0.25,0],[0,0.5,0],[0,0.75,0],[1,0.25,0],[1,0.5,0],[1,0.75,0]];outlineConnect=0;fontColor=#232F3E;gradientColor=#F78E04;gradientDirection=north;fillColor=#D05C17;strokeColor=#ffffff;dashed=0;verticalLabelPosition=bottom;verticalAlign=top;align=center;html=1;fontSize=12;fontStyle=0;aspect=fixed;shape=mxgraph.aws4.resourceIcon;resIcon=mxgraph.aws4.ecs_service;" vertex="1" parent="1">
          <mxGeometry x="1080" y="380" width="40" height="40" as="geometry"/>
        </mxCell>
        
        <mxCell id="ecs_service_label" value="ECS Service&#xa;(Port 3000)" style="text;html=1;align=center;verticalAlign=middle;whiteSpace=wrap;rounded=0;fontSize=10;" vertex="1" parent="1">
          <mxGeometry x="1065" y="425" width="70" height="25" as="geometry"/>
        </mxCell>

        <!-- Network Load Balancer -->
        <mxCell id="nlb" value="" style="sketch=0;points=[[0,0,0],[0.25,0,0],[0.5,0,0],[0.75,0,0],[1,0,0],[0,1,0],[0.25,1,0],[0.5,1,0],[0.75,1,0],[1,1,0],[0,0.25,0],[0,0.5,0],[0,0.75,0],[1,0.25,0],[1,0.5,0],[1,0.75,0]];outlineConnect=0;fontColor=#232F3E;gradientColor=#F78E04;gradientDirection=north;fillColor=#D05C17;strokeColor=#ffffff;dashed=0;verticalLabelPosition=bottom;verticalAlign=top;align=center;html=1;fontSize=12;fontStyle=0;aspect=fixed;shape=mxgraph.aws4.resourceIcon;resIcon=mxgraph.aws4.network_load_balancer;" vertex="1" parent="1">
          <mxGeometry x="1160" y="380" width="50" height="50" as="geometry"/>
        </mxCell>
        
        <mxCell id="nlb_label" value="Network LB&#xa;(Static IP:&#xa;18.181.38.132)" style="text;html=1;align=center;verticalAlign=middle;whiteSpace=wrap;rounded=0;fontSize=10;" vertex="1" parent="1">
          <mxGeometry x="1135" y="435" width="100" height="35" as="geometry"/>
        </mxCell>

        <!-- CloudWatch Logs -->
        <mxCell id="cloudwatch" value="" style="sketch=0;points=[[0,0,0],[0.25,0,0],[0.5,0,0],[0.75,0,0],[1,0,0],[0,1,0],[0.25,1,0],[0.5,1,0],[0.75,1,0],[1,1,0],[0,0.25,0],[0,0.5,0],[0,0.75,0],[1,0.25,0],[1,0.5,0],[1,0.75,0]];outlineConnect=0;fontColor=#232F3E;gradientColor=#F34482;gradientDirection=north;fillColor=#BC1356;strokeColor=#ffffff;dashed=0;verticalLabelPosition=bottom;verticalAlign=top;align=center;html=1;fontSize=12;fontStyle=0;aspect=fixed;shape=mxgraph.aws4.resourceIcon;resIcon=mxgraph.aws4.cloudwatch_2;" vertex="1" parent="1">
          <mxGeometry x="700" y="750" width="50" height="50" as="geometry"/>
        </mxCell>
        
        <mxCell id="cloudwatch_label" value="CloudWatch&#xa;Logs" style="text;html=1;align=center;verticalAlign=middle;whiteSpace=wrap;rounded=0;fontSize=10;" vertex="1" parent="1">
          <mxGeometry x="685" y="805" width="80" height="25" as="geometry"/>
        </mxCell>

        <!-- Connections/Arrows -->
        
        <!-- User to CloudFront -->
        <mxCell id="connection1" value="" style="edgeStyle=orthogonalEdgeStyle;rounded=0;orthogonalLoop=1;jettySize=auto;html=1;startArrow=none;startFill=0;endArrow=classic;endFill=1;" edge="1" parent="1" source="internet" target="cloudfront">
          <mxGeometry relative="1" as="geometry"/>
        </mxCell>
        
        <!-- CloudFront to S3 -->
        <mxCell id="connection2" value="" style="edgeStyle=orthogonalEdgeStyle;rounded=0;orthogonalLoop=1;jettySize=auto;html=1;startArrow=none;startFill=0;endArrow=classic;endFill=1;" edge="1" parent="1" source="cloudfront" target="s3">
          <mxGeometry relative="1" as="geometry"/>
        </mxCell>
        
        <!-- User to Custom Domain (WebSocket) -->
        <mxCell id="connection3" value="WSS" style="edgeStyle=orthogonalEdgeStyle;rounded=0;orthogonalLoop=1;jettySize=auto;html=1;startArrow=none;startFill=0;endArrow=classic;endFill=1;" edge="1" parent="1" source="internet" target="custom_domain">
          <mxGeometry relative="1" as="geometry">
            <Array as="points">
              <mxPoint x="139" y="250"/>
              <mxPoint x="139" y="339"/>
            </Array>
          </mxGeometry>
        </mxCell>
        
        <!-- Custom Domain to API Gateway WebSocket -->
        <mxCell id="connection4" value="" style="edgeStyle=orthogonalEdgeStyle;rounded=0;orthogonalLoop=1;jettySize=auto;html=1;startArrow=none;startFill=0;endArrow=classic;endFill=1;" edge="1" parent="1" source="custom_domain" target="apigateway_ws">
          <mxGeometry relative="1" as="geometry"/>
        </mxCell>
        
        <!-- ACM to Custom Domain -->
        <mxCell id="connection5" value="" style="edgeStyle=orthogonalEdgeStyle;rounded=0;orthogonalLoop=1;jettySize=auto;html=1;startArrow=none;startFill=0;endArrow=classic;endFill=1;dashed=1;" edge="1" parent="1" source="acm" target="custom_domain">
          <mxGeometry relative="1" as="geometry"/>
        </mxCell>
        
        <!-- API Gateway WebSocket to Lambdas -->
        <mxCell id="connection6" value="" style="edgeStyle=orthogonalEdgeStyle;rounded=0;orthogonalLoop=1;jettySize=auto;html=1;startArrow=none;startFill=0;endArrow=classic;endFill=1;" edge="1" parent="1" source="apigateway_ws" target="lambda_connect">
          <mxGeometry relative="1" as="geometry">
            <Array as="points">
              <mxPoint x="539" y="450"/>
              <mxPoint x="125" y="450"/>
            </Array>
          </mxGeometry>
        </mxCell>
        
        <mxCell id="connection7" value="" style="edgeStyle=orthogonalEdgeStyle;rounded=0;orthogonalLoop=1;jettySize=auto;html=1;startArrow=none;startFill=0;endArrow=classic;endFill=1;" edge="1" parent="1" source="apigateway_ws" target="lambda_disconnect">
          <mxGeometry relative="1" as="geometry">
            <Array as="points">
              <mxPoint x="539" y="450"/>
              <mxPoint x="225" y="450"/>
            </Array>
          </mxGeometry>
        </mxCell>
        
        <mxCell id="connection8" value="" style="edgeStyle=orthogonalEdgeStyle;rounded=0;orthogonalLoop=1;jettySize=auto;html=1;startArrow=none;startFill=0;endArrow=classic;endFill=1;" edge="1" parent="1" source="apigateway_ws" target="lambda_matchmaking">
          <mxGeometry relative="1" as="geometry">
            <Array as="points">
              <mxPoint x="539" y="450"/>
              <mxPoint x="325" y="450"/>
            </Array>
          </mxGeometry>
        </mxCell>
        
        <mxCell id="connection9" value="" style="edgeStyle=orthogonalEdgeStyle;rounded=0;orthogonalLoop=1;jettySize=auto;html=1;startArrow=none;startFill=0;endArrow=classic;endFill=1;" edge="1" parent="1" source="apigateway_ws" target="lambda_game">
          <mxGeometry relative="1" as="geometry">
            <Array as="points">
              <mxPoint x="539" y="450"/>
              <mxPoint x="425" y="450"/>
            </Array>
          </mxGeometry>
        </mxCell>
        
        <!-- API Gateway REST to Lambda Replay -->
        <mxCell id="connection10" value="" style="edgeStyle=orthogonalEdgeStyle;rounded=0;orthogonalLoop=1;jettySize=auto;html=1;startArrow=none;startFill=0;endArrow=classic;endFill=1;" edge="1" parent="1" source="apigateway_rest" target="lambda_replay">
          <mxGeometry relative="1" as="geometry">
            <Array as="points">
              <mxPoint x="739" y="450"/>
              <mxPoint x="525" y="450"/>
            </Array>
          </mxGeometry>
        </mxCell>
        
        <!-- EventBridge to Cleanup Lambda -->
        <mxCell id="connection11" value="" style="edgeStyle=orthogonalEdgeStyle;rounded=0;orthogonalLoop=1;jettySize=auto;html=1;startArrow=none;startFill=0;endArrow=classic;endFill=1;" edge="1" parent="1" source="eventbridge" target="lambda_cleanup">
          <mxGeometry relative="1" as="geometry"/>
        </mxCell>
        
        <!-- Lambdas to DynamoDB -->
        <mxCell id="connection12" value="" style="edgeStyle=orthogonalEdgeStyle;rounded=0;orthogonalLoop=1;jettySize=auto;html=1;startArrow=none;startFill=0;endArrow=classic;endFill=1;" edge="1" parent="1" source="lambda_connect" target="dynamodb_websocket">
          <mxGeometry relative="1" as="geometry"/>
        </mxCell>
        
        <mxCell id="connection13" value="" style="edgeStyle=orthogonalEdgeStyle;rounded=0;orthogonalLoop=1;jettySize=auto;html=1;startArrow=none;startFill=0;endArrow=classic;endFill=1;" edge="1" parent="1" source="lambda_disconnect" target="dynamodb_websocket">
          <mxGeometry relative="1" as="geometry">
            <Array as="points">
              <mxPoint x="225" y="700"/>
              <mxPoint x="125" y="700"/>
            </Array>
          </mxGeometry>
        </mxCell>
        
        <mxCell id="connection14" value="" style="edgeStyle=orthogonalEdgeStyle;rounded=0;orthogonalLoop=1;jettySize=auto;html=1;startArrow=none;startFill=0;endArrow=classic;endFill=1;" edge="1" parent="1" source="lambda_matchmaking" target="dynamodb_game">
          <mxGeometry relative="1" as="geometry">
            <Array as="points">
              <mxPoint x="325" y="700"/>
              <mxPoint x="275" y="700"/>
            </Array>
          </mxGeometry>
        </mxCell>
        
        <mxCell id="connection15" value="" style="edgeStyle=orthogonalEdgeStyle;rounded=0;orthogonalLoop=1;jettySize=auto;html=1;startArrow=none;startFill=0;endArrow=classic;endFill=1;" edge="1" parent="1" source="lambda_game" target="dynamodb_game">
          <mxGeometry relative="1" as="geometry">
            <Array as="points">
              <mxPoint x="425" y="700"/>
              <mxPoint x="275" y="700"/>
            </Array>
          </mxGeometry>
        </mxCell>
        
        <mxCell id="connection16" value="" style="edgeStyle=orthogonalEdgeStyle;rounded=0;orthogonalLoop=1;jettySize=auto;html=1;startArrow=none;startFill=0;endArrow=classic;endFill=1;" edge="1" parent="1" source="lambda_replay" target="dynamodb_archive">
          <mxGeometry relative="1" as="geometry">
            <Array as="points">
              <mxPoint x="525" y="700"/>
              <mxPoint x="425" y="700"/>
            </Array>
          </mxGeometry>
        </mxCell>
        
        <mxCell id="connection17" value="" style="edgeStyle=orthogonalEdgeStyle;rounded=0;orthogonalLoop=1;jettySize=auto;html=1;startArrow=none;startFill=0;endArrow=classic;endFill=1;" edge="1" parent="1" source="lambda_cleanup" target="dynamodb_websocket">
          <mxGeometry relative="1" as="geometry">
            <Array as="points">
              <mxPoint x="625" y="700"/>
              <mxPoint x="125" y="700"/>
            </Array>
          </mxGeometry>
        </mxCell>
        
        <mxCell id="connection18" value="" style="edgeStyle=orthogonalEdgeStyle;rounded=0;orthogonalLoop=1;jettySize=auto;html=1;startArrow=none;startFill=0;endArrow=classic;endFill=1;" edge="1" parent="1" source="lambda_cleanup" target="dynamodb_game">
          <mxGeometry relative="1" as="geometry">
            <Array as="points">
              <mxPoint x="625" y="700"/>
              <mxPoint x="275" y="700"/>
            </Array>
          </mxGeometry>
        </mxCell>

        <!-- ECR to ECS -->
        <mxCell id="connection19" value="" style="edgeStyle=orthogonalEdgeStyle;rounded=0;orthogonalLoop=1;jettySize=auto;html=1;startArrow=none;startFill=0;endArrow=classic;endFill=1;" edge="1" parent="1" source="ecr" target="ecs_cluster">
          <mxGeometry relative="1" as="geometry">
            <Array as="points">
              <mxPoint x="980" y="240"/>
              <mxPoint x="1025" y="240"/>
            </Array>
          </mxGeometry>
        </mxCell>

        <!-- ECS to NLB -->
        <mxCell id="connection20" value="" style="edgeStyle=orthogonalEdgeStyle;rounded=0;orthogonalLoop=1;jettySize=auto;html=1;startArrow=none;startFill=0;endArrow=classic;endFill=1;" edge="1" parent="1" source="ecs_service" target="nlb">
          <mxGeometry relative="1" as="geometry"/>
        </mxCell>

        <!-- User to NLB (Direct API access) -->
        <mxCell id="connection21" value="HTTP:3000&#xa;(Decode API)" style="edgeStyle=orthogonalEdgeStyle;rounded=0;orthogonalLoop=1;jettySize=auto;html=1;startArrow=none;startFill=0;endArrow=classic;endFill=1;" edge="1" parent="1" source="internet" target="nlb">
          <mxGeometry relative="1" as="geometry">
            <Array as="points">
              <mxPoint x="139" y="250"/>
              <mxPoint x="800" y="250"/>
              <mxPoint x="800" y="350"/>
              <mxPoint x="1185" y="350"/>
            </Array>
          </mxGeometry>
        </mxCell>

        <!-- User to REST API -->
        <mxCell id="connection22" value="HTTPS&#xa;(Game Replay)" style="edgeStyle=orthogonalEdgeStyle;rounded=0;orthogonalLoop=1;jettySize=auto;html=1;startArrow=none;startFill=0;endArrow=classic;endFill=1;" edge="1" parent="1" source="internet" target="apigateway_rest">
          <mxGeometry relative="1" as="geometry">
            <Array as="points">
              <mxPoint x="139" y="250"/>
              <mxPoint x="739" y="250"/>
            </Array>
          </mxGeometry>
        </mxCell>

        <!-- Lambdas to CloudWatch Logs -->
        <mxCell id="connection23" value="" style="edgeStyle=orthogonalEdgeStyle;rounded=0;orthogonalLoop=1;jettySize=auto;html=1;startArrow=none;startFill=0;endArrow=classic;endFill=1;dashed=1;" edge="1" parent="1" source="lambda_cleanup" target="cloudwatch">
          <mxGeometry relative="1" as="geometry"/>
        </mxCell>

        <!-- Legend -->
        <mxCell id="legend" value="Legend:&#xa;━━━ Data Flow&#xa;┅┅┅ Configuration/Authentication&#xa;&#xa;Key Features:&#xa;• WebSocket for real-time gaming&#xa;• REST API for game replay&#xa;• Static IP for decode API&#xa;• Automated cleanup every 5 minutes&#xa;• TTL enabled on game archive" style="rounded=1;whiteSpace=wrap;html=1;fillColor=#F8CECC;strokeColor=#b85450;fontSize=11;fontStyle=0;verticalAlign=top;align=left;" vertex="1" parent="1">
          <mxGeometry x="900" y="600" width="250" height="120" as="geometry"/>
        </mxCell>

      </root>
    </mxGraphModel>
  </diagram>
</mxfile>
